<mxfile host="drawio-plugin" modified="2022-11-25T09:28:16.447Z" agent="5.0 (Windows NT 6.2; Win64; x64) AppleWebKit/537.36 (KHTML, like Gecko) Chrome/98.0.4758.102 Safari/537.36" etag="UyObBo6hxZdeljOvlJek" version="20.5.3" type="embed"><diagram name="Page-1" id="c7558073-3199-34d8-9f00-42111426c3f3"><mxGraphModel dx="1970" dy="1231" grid="1" gridSize="10" guides="1" tooltips="1" connect="1" arrows="1" fold="1" page="1" pageScale="1" pageWidth="826" pageHeight="1169" background="none" math="0" shadow="0"><root><mxCell id="0"/><mxCell id="1" parent="0"/><mxCell id="289" value="&lt;div style=&quot;&quot;&gt;&lt;div&gt;&lt;span style=&quot;background-color: initial;&quot;&gt;保存保单&lt;/span&gt;&lt;br&gt;&lt;/div&gt;&lt;div&gt;保存被保险人、受益人、客户告知&lt;span style=&quot;background-color: initial;&quot;&gt;&lt;br&gt;&lt;/span&gt;&lt;/div&gt;&lt;div&gt;保存保单标的&lt;/div&gt;&lt;div&gt;保存保单费用&lt;/div&gt;&lt;div&gt;保存投保人&lt;/div&gt;&lt;div&gt;保存付款人&lt;/div&gt;&lt;div&gt;保存险种信息&lt;/div&gt;&lt;div&gt;保存标的与险种关系&lt;/div&gt;&lt;div&gt;保存路由&lt;/div&gt;&lt;div&gt;保存保单版本&lt;/div&gt;&lt;div&gt;保存保单log&lt;/div&gt;&lt;div&gt;保存保单险种trace&lt;/div&gt;&lt;/div&gt;" style="shape=note;size=20;whiteSpace=wrap;html=1;fontFamily=Lucida Console;fontSize=12;align=left;" parent="1" vertex="1"><mxGeometry x="1380" y="1060" width="133" height="200" as="geometry"/></mxCell><mxCell id="286" value="&lt;div style=&quot;&quot;&gt;&lt;div&gt;发送kafaka消息&amp;nbsp;&lt;/div&gt;&lt;div&gt;tag：&lt;span style=&quot;background-color: initial;&quot;&gt;za.graphene.issuance.&lt;/span&gt;&lt;/div&gt;&lt;div&gt;&lt;span style=&quot;background-color: initial;&quot;&gt;kafkaProducerTagPolicy&lt;/span&gt;&lt;/div&gt;&lt;div&gt;&lt;span style=&quot;background-color: initial;&quot;&gt;@IConsumer(&quot;policyKafkaConsumer&quot;)&lt;br&gt;&lt;/span&gt;&lt;/div&gt;&lt;/div&gt;" style="shape=note;size=20;whiteSpace=wrap;html=1;fontFamily=Lucida Console;fontSize=12;align=left;" parent="1" vertex="1"><mxGeometry x="970" y="1010" width="248" height="75" as="geometry"/></mxCell><mxCell id="287" value="&lt;div style=&quot;&quot;&gt;核保，调用XD，InjuryOneYearInsureUWHander&lt;br&gt;&lt;/div&gt;&lt;div style=&quot;&quot;&gt;nacos中policy.yml需要增加配置项&lt;/div&gt;&lt;div style=&quot;&quot;&gt;&lt;div&gt;smartuw:&lt;/div&gt;&lt;div&gt;&amp;nbsp; 'goodsId': ${smartuw.injuryOneYear}&lt;/div&gt;&lt;div&gt;za.graphene.issuance:&lt;/div&gt;&lt;div&gt;&amp;nbsp; goodsPlanIdsForOneYearAccident: goodsPlanId&lt;/div&gt;&lt;/div&gt;" style="shape=note;size=20;whiteSpace=wrap;html=1;fontFamily=Lucida Console;fontSize=12;align=left;" parent="1" vertex="1"><mxGeometry x="1560" y="630" width="330" height="110" as="geometry"/></mxCell><mxCell id="127" value="fusion" style="shape=umlLifeline;perimeter=lifelinePerimeter;whiteSpace=wrap;html=1;container=1;collapsible=0;recursiveResize=0;outlineConnect=0;fontFamily=Lucida Console;fontSize=19;fontStyle=1" parent="1" vertex="1"><mxGeometry x="300" y="98" width="100" height="1250" as="geometry"/></mxCell><mxCell id="129" value="" style="shape=umlLifeline;participant=umlActor;perimeter=lifelinePerimeter;whiteSpace=wrap;html=1;container=1;collapsible=0;recursiveResize=0;verticalAlign=top;spacingTop=36;outlineConnect=0;fontSize=20;" parent="1" vertex="1"><mxGeometry x="54" y="98" width="20" height="1250" as="geometry"/></mxCell><mxCell id="150" value="insure" style="html=1;verticalAlign=bottom;endArrow=block;rounded=0;fontFamily=Lucida Console;fontSize=16;" parent="129" target="127" edge="1"><mxGeometry width="80" relative="1" as="geometry"><mxPoint x="10" y="62" as="sourcePoint"/><mxPoint x="90" y="62" as="targetPoint"/></mxGeometry></mxCell><mxCell id="133" value="" style="html=1;points=[];perimeter=orthogonalPerimeter;" parent="1" vertex="1"><mxGeometry x="59" y="160" width="10" height="1150" as="geometry"/></mxCell><mxCell id="134" value="issuance" style="shape=umlLifeline;perimeter=lifelinePerimeter;whiteSpace=wrap;html=1;container=1;collapsible=0;recursiveResize=0;outlineConnect=0;fontFamily=Lucida Console;fontSize=16;fontStyle=1" parent="1" vertex="1"><mxGeometry x="900" y="98" width="100" height="1250" as="geometry"/></mxCell><mxCell id="272" value="&lt;font style=&quot;font-size: 16px;&quot;&gt;保存投保单&lt;/font&gt;" style="edgeStyle=orthogonalEdgeStyle;html=1;align=left;spacingLeft=2;endArrow=block;rounded=0;entryX=1;entryY=0;fontFamily=Lucida Console;" parent="134" target="271" edge="1"><mxGeometry relative="1" as="geometry"><mxPoint x="49" y="542" as="sourcePoint"/><Array as="points"><mxPoint x="89" y="542"/></Array></mxGeometry></mxCell><mxCell id="222" value="" style="html=1;points=[];perimeter=orthogonalPerimeter;" parent="134" vertex="1"><mxGeometry x="54" y="212" width="10" height="40" as="geometry"/></mxCell><mxCell id="223" value="&lt;font style=&quot;font-size: 16px;&quot;&gt;参数校验&lt;/font&gt;" style="edgeStyle=orthogonalEdgeStyle;html=1;align=left;spacingLeft=2;endArrow=block;rounded=0;entryX=1;entryY=0;fontFamily=Lucida Console;" parent="134" target="222" edge="1"><mxGeometry relative="1" as="geometry"><mxPoint x="49" y="192" as="sourcePoint"/><Array as="points"><mxPoint x="89" y="192"/></Array></mxGeometry></mxCell><mxCell id="224" value="" style="html=1;points=[];perimeter=orthogonalPerimeter;" parent="134" vertex="1"><mxGeometry x="44" y="183" width="10" height="617" as="geometry"/></mxCell><mxCell id="271" value="" style="html=1;points=[];perimeter=orthogonalPerimeter;" parent="134" vertex="1"><mxGeometry x="54" y="562" width="10" height="40" as="geometry"/></mxCell><mxCell id="135" value="policy" style="shape=umlLifeline;perimeter=lifelinePerimeter;whiteSpace=wrap;html=1;container=1;collapsible=0;recursiveResize=0;outlineConnect=0;fontFamily=Lucida Console;fontSize=19;fontStyle=1" parent="1" vertex="1"><mxGeometry x="1200" y="98" width="100" height="1250" as="geometry"/></mxCell><mxCell id="290" value="&lt;font style=&quot;font-size: 16px;&quot;&gt;保存保单&lt;/font&gt;" style="edgeStyle=orthogonalEdgeStyle;html=1;align=left;spacingLeft=2;endArrow=block;rounded=0;entryX=1;entryY=0;fontFamily=Lucida Console;" parent="135" target="291" edge="1"><mxGeometry relative="1" as="geometry"><mxPoint x="50" y="1052.05" as="sourcePoint"/><Array as="points"><mxPoint x="90" y="1052.05"/></Array></mxGeometry></mxCell><mxCell id="291" value="" style="html=1;points=[];perimeter=orthogonalPerimeter;" parent="135" vertex="1"><mxGeometry x="55" y="1072.05" width="10" height="40" as="geometry"/></mxCell><mxCell id="283" value="" style="html=1;points=[];perimeter=orthogonalPerimeter;fontFamily=Lucida Console;fontSize=15;" parent="135" vertex="1"><mxGeometry x="45" y="1022" width="10" height="138" as="geometry"/></mxCell><mxCell id="136" value="market" style="shape=umlLifeline;perimeter=lifelinePerimeter;whiteSpace=wrap;html=1;container=1;collapsible=0;recursiveResize=0;outlineConnect=0;fontFamily=Lucida Console;fontSize=18;fontStyle=1" parent="1" vertex="1"><mxGeometry x="1800" y="98" width="100" height="1250" as="geometry"/></mxCell><mxCell id="228" value="" style="html=1;points=[];perimeter=orthogonalPerimeter;" parent="136" vertex="1"><mxGeometry x="44" y="273" width="10" height="48" as="geometry"/></mxCell><mxCell id="137" value="customer" style="shape=umlLifeline;perimeter=lifelinePerimeter;whiteSpace=wrap;html=1;container=1;collapsible=0;recursiveResize=0;outlineConnect=0;fontFamily=Lucida Console;fontSize=15;fontStyle=1" parent="1" vertex="1"><mxGeometry x="2100" y="98" width="100" height="1250" as="geometry"/></mxCell><mxCell id="138" value="bcp" style="shape=umlLifeline;perimeter=lifelinePerimeter;whiteSpace=wrap;html=1;container=1;collapsible=0;recursiveResize=0;outlineConnect=0;fontFamily=Lucida Console;fontSize=20;fontStyle=1" parent="1" vertex="1"><mxGeometry x="2400" y="98" width="100" height="1250" as="geometry"/></mxCell><mxCell id="187" value="" style="html=1;points=[];perimeter=orthogonalPerimeter;fontFamily=Lucida Console;fontSize=16;" parent="138" vertex="1"><mxGeometry x="46" y="905" width="10" height="45" as="geometry"/></mxCell><mxCell id="199" value="" style="html=1;points=[];perimeter=orthogonalPerimeter;fontFamily=Lucida Console;fontSize=16;" parent="138" vertex="1"><mxGeometry x="-255" y="816" width="10" height="58" as="geometry"/></mxCell><mxCell id="139" value="misc" style="shape=umlLifeline;perimeter=lifelinePerimeter;whiteSpace=wrap;html=1;container=1;collapsible=0;recursiveResize=0;outlineConnect=0;fontFamily=Lucida Console;fontSize=20;fontStyle=1" parent="1" vertex="1"><mxGeometry x="2700" y="98" width="100" height="1250" as="geometry"/></mxCell><mxCell id="298" value="notfiy" style="html=1;verticalAlign=bottom;endArrow=block;entryX=0;entryY=0;rounded=0;fontFamily=Lucida Console;fontSize=16;" edge="1" parent="139"><mxGeometry relative="1" as="geometry"><mxPoint x="-1450.5" y="1160" as="sourcePoint"/><mxPoint x="44.5" y="1160" as="targetPoint"/></mxGeometry></mxCell><mxCell id="297" value="" style="html=1;points=[];perimeter=orthogonalPerimeter;fontFamily=Lucida Console;fontSize=16;" vertex="1" parent="139"><mxGeometry x="44.5" y="1159" width="10" height="45" as="geometry"/></mxCell><mxCell id="143" value="biz" style="shape=umlLifeline;perimeter=lifelinePerimeter;whiteSpace=wrap;html=1;container=1;collapsible=0;recursiveResize=0;outlineConnect=0;fontFamily=Lucida Console;fontSize=22;fontStyle=1" parent="1" vertex="1"><mxGeometry x="600" y="98" width="100" height="1250" as="geometry"/></mxCell><mxCell id="221" value="&lt;font face=&quot;Lucida Console&quot; style=&quot;font-size: 16px;&quot;&gt;参数校验&lt;/font&gt;" style="edgeStyle=orthogonalEdgeStyle;html=1;align=left;spacingLeft=2;endArrow=block;rounded=0;entryX=1;entryY=0;" parent="143" target="220" edge="1"><mxGeometry relative="1" as="geometry"><mxPoint x="49" y="102" as="sourcePoint"/><Array as="points"><mxPoint x="89" y="102"/></Array></mxGeometry></mxCell><mxCell id="202" value="" style="html=1;points=[];perimeter=orthogonalPerimeter;fontFamily=Lucida Console;fontSize=16;" parent="143" vertex="1"><mxGeometry x="44" y="82" width="10" height="1048" as="geometry"/></mxCell><mxCell id="220" value="" style="html=1;points=[];perimeter=orthogonalPerimeter;" parent="143" vertex="1"><mxGeometry x="54" y="122" width="10" height="40" as="geometry"/></mxCell><mxCell id="154" value="xd" style="shape=umlLifeline;perimeter=lifelinePerimeter;whiteSpace=wrap;html=1;container=1;collapsible=0;recursiveResize=0;outlineConnect=0;fontFamily=Lucida Console;fontStyle=1;fontSize=22;" parent="1" vertex="1"><mxGeometry x="1500" y="98" width="100" height="1250" as="geometry"/></mxCell><mxCell id="193" value="" style="html=1;points=[];perimeter=orthogonalPerimeter;fontFamily=Lucida Console;fontSize=16;" parent="154" vertex="1"><mxGeometry x="43.5" y="622" width="10" height="58" as="geometry"/></mxCell><mxCell id="188" value="createCollectionBalance" style="html=1;verticalAlign=bottom;endArrow=block;entryX=0;entryY=0;rounded=0;fontFamily=Lucida Console;fontSize=16;" parent="1" target="187" edge="1"><mxGeometry relative="1" as="geometry"><mxPoint x="650" y="1002" as="sourcePoint"/></mxGeometry></mxCell><mxCell id="189" value="return" style="html=1;verticalAlign=bottom;endArrow=open;dashed=1;endSize=8;exitX=0;exitY=0.95;rounded=0;fontFamily=Lucida Console;fontSize=16;" parent="1" source="187" target="143" edge="1"><mxGeometry relative="1" as="geometry"><mxPoint x="649.4473684210525" y="1057.15" as="targetPoint"/></mxGeometry></mxCell><mxCell id="203" value="coordinate" style="html=1;verticalAlign=bottom;endArrow=block;entryX=0;entryY=0;rounded=0;fontFamily=Lucida Console;fontSize=16;" parent="1" source="127" target="202" edge="1"><mxGeometry relative="1" as="geometry"><mxPoint x="319" y="754" as="sourcePoint"/></mxGeometry></mxCell><mxCell id="225" value="&lt;span style=&quot;font-family: &amp;quot;Lucida Console&amp;quot;; font-size: 16px;&quot;&gt;createIssuance&lt;/span&gt;" style="html=1;verticalAlign=bottom;endArrow=block;entryX=0;entryY=0;rounded=0;" parent="1" target="224" edge="1"><mxGeometry relative="1" as="geometry"><mxPoint x="658.0714285714284" y="281.0000000000023" as="sourcePoint"/></mxGeometry></mxCell><mxCell id="226" value="&lt;span style=&quot;font-family: &amp;quot;Lucida Console&amp;quot;; font-size: 16px;&quot;&gt;return success&lt;/span&gt;" style="html=1;verticalAlign=bottom;endArrow=open;dashed=1;endSize=8;exitX=0;exitY=0.95;rounded=0;" parent="1" edge="1"><mxGeometry relative="1" as="geometry"><mxPoint x="658.0714285714284" y="894.1499999999969" as="targetPoint"/><mxPoint x="944" y="894.1499999999965" as="sourcePoint"/></mxGeometry></mxCell><mxCell id="229" value="&lt;span style=&quot;font-family: &amp;quot;Lucida Console&amp;quot;; font-size: 16px;&quot;&gt;premium check&lt;/span&gt;" style="html=1;verticalAlign=bottom;endArrow=block;entryX=0;entryY=0;rounded=0;" parent="1" target="228" edge="1"><mxGeometry relative="1" as="geometry"><mxPoint x="948.5" y="371" as="sourcePoint"/></mxGeometry></mxCell><mxCell id="230" value="&lt;span style=&quot;font-family: &amp;quot;Lucida Console&amp;quot;; font-size: 16px;&quot;&gt;return&lt;/span&gt;" style="html=1;verticalAlign=bottom;endArrow=open;dashed=1;endSize=8;exitX=0;exitY=0.95;rounded=0;fontSize=16;" parent="1" source="228" edge="1"><mxGeometry relative="1" as="geometry"><mxPoint x="948.5" y="416.5999999999999" as="targetPoint"/></mxGeometry></mxCell><mxCell id="250" value="" style="html=1;points=[];perimeter=orthogonalPerimeter;" parent="1" vertex="1"><mxGeometry x="1844" y="459" width="10" height="48" as="geometry"/></mxCell><UserObject label="&lt;span style=&quot;font-family: &amp;quot;Lucida Console&amp;quot;; font-size: 16px;&quot;&gt;splitGoods&lt;/span&gt;" linkTarget="_blank" id="251"><mxCell style="html=1;verticalAlign=bottom;endArrow=block;entryX=0;entryY=0;rounded=0;" parent="1" target="250" edge="1"><mxGeometry relative="1" as="geometry"><mxPoint x="948.5" y="459" as="sourcePoint"/></mxGeometry></mxCell></UserObject><mxCell id="252" value="&lt;span style=&quot;font-family: &amp;quot;Lucida Console&amp;quot;; font-size: 16px;&quot;&gt;return&lt;/span&gt;" style="html=1;verticalAlign=bottom;endArrow=open;dashed=1;endSize=8;exitX=0;exitY=0.95;rounded=0;fontSize=16;" parent="1" source="250" edge="1"><mxGeometry relative="1" as="geometry"><mxPoint x="948.5" y="504.5999999999999" as="targetPoint"/></mxGeometry></mxCell><mxCell id="267" value="&lt;div style=&quot;font-size: 12px;&quot;&gt;&lt;font style=&quot;font-size: 12px;&quot;&gt;接口：/market/splitGoods&lt;/font&gt;&lt;/div&gt;&lt;div style=&quot;font-size: 12px;&quot;&gt;&lt;font style=&quot;font-size: 12px;&quot;&gt;1.优先计算保费&amp;nbsp;&lt;/font&gt;&lt;/div&gt;&lt;div style=&quot;font-size: 12px;&quot;&gt;&lt;font style=&quot;font-size: 12px;&quot;&gt;2.获取商品的明细信息&amp;nbsp;&lt;/font&gt;&lt;/div&gt;&lt;div style=&quot;font-size: 12px;&quot;&gt;&lt;span style=&quot;background-color: initial; font-size: 12px;&quot;&gt;&amp;nbsp; a.通过goodsPlanId查询商品信息、组合信息、组合对应的产品信息&amp;nbsp;&lt;/span&gt;&lt;/div&gt;&lt;div style=&quot;font-size: 12px;&quot;&gt;&lt;span style=&quot;background-color: initial; font-size: 12px;&quot;&gt;&amp;nbsp; b.封装商品的组合及产品的明细信息&lt;/span&gt;&lt;/div&gt;&lt;div style=&quot;font-size: 12px;&quot;&gt;&lt;font face=&quot;PingFang SC, Lantinghei SC, Microsoft YaHei, arial, 宋体, sans-serif, tahoma&quot; color=&quot;#333333&quot; style=&quot;font-size: 12px;&quot;&gt;&lt;span style=&quot;font-size: 12px;&quot;&gt;&lt;/span&gt;&lt;/font&gt;&lt;div style=&quot;font-size: 12px;&quot;&gt;&lt;font face=&quot;PingFang SC, Lantinghei SC, Microsoft YaHei, arial, 宋体, sans-serif, tahoma&quot; color=&quot;#333333&quot; style=&quot;font-size: 12px;&quot;&gt;&lt;span style=&quot;font-size: 12px;&quot;&gt;&lt;span style=&quot;white-space: pre;&quot;&gt;&#9;&lt;/span&gt;I.获取主/附险产品约定和相关止期&amp;nbsp;&lt;/span&gt;&lt;/font&gt;&lt;/div&gt;&lt;div style=&quot;font-size: 12px;&quot;&gt;&lt;font face=&quot;PingFang SC, Lantinghei SC, Microsoft YaHei, arial, 宋体, sans-serif, tahoma&quot; color=&quot;#333333&quot; style=&quot;font-size: 12px;&quot;&gt;&lt;span style=&quot;font-size: 12px;&quot;&gt;&lt;span style=&quot;white-space: pre;&quot;&gt;&#9;&lt;/span&gt;II.产品相关计划信息&lt;/span&gt;&lt;/font&gt;&lt;/div&gt;&lt;div style=&quot;font-size: 12px;&quot;&gt;&lt;font face=&quot;PingFang SC, Lantinghei SC, Microsoft YaHei, arial, 宋体, sans-serif, tahoma&quot; color=&quot;#333333&quot; style=&quot;font-size: 12px;&quot;&gt;&lt;span style=&quot;font-size: 12px;&quot;&gt;&lt;span style=&quot;white-space: pre;&quot;&gt;&#9;&lt;/span&gt;III.理赔责任相关信息&amp;nbsp;&lt;/span&gt;&lt;/font&gt;&lt;/div&gt;&lt;div style=&quot;font-size: 12px;&quot;&gt;&lt;font face=&quot;PingFang SC, Lantinghei SC, Microsoft YaHei, arial, 宋体, sans-serif, tahoma&quot; color=&quot;#333333&quot; style=&quot;font-size: 12px;&quot;&gt;&lt;span style=&quot;font-size: 12px;&quot;&gt;&lt;span style=&quot;white-space: pre;&quot;&gt;&#9;&lt;/span&gt;IV.险种保费计算&amp;nbsp;&lt;/span&gt;&lt;/font&gt;&lt;/div&gt;&lt;div style=&quot;font-size: 12px;&quot;&gt;&lt;font face=&quot;PingFang SC, Lantinghei SC, Microsoft YaHei, arial, 宋体, sans-serif, tahoma&quot; color=&quot;#333333&quot; style=&quot;font-size: 12px;&quot;&gt;&lt;span style=&quot;font-size: 12px;&quot;&gt;&lt;span style=&quot;white-space: pre;&quot;&gt;&#9;&lt;/span&gt;V.基础信息汇总&lt;/span&gt;&lt;/font&gt;&lt;/div&gt;&lt;/div&gt;&lt;div style=&quot;font-size: 12px;&quot;&gt;&lt;font style=&quot;font-size: 12px;&quot;&gt;3.计算产品中每一个险种生效日期以及相关止期&amp;nbsp;&lt;/font&gt;&lt;/div&gt;&lt;div style=&quot;font-size: 12px;&quot;&gt;&lt;font style=&quot;font-size: 12px;&quot;&gt;4.过滤不参与计费的产品及责任&amp;nbsp;&lt;/font&gt;&lt;/div&gt;&lt;div style=&quot;font-size: 12px;&quot;&gt;&lt;font style=&quot;font-size: 12px;&quot;&gt;5.根据计算结果 过滤不参与计费的商品、险种、责任等&lt;/font&gt;&lt;/div&gt;&lt;div style=&quot;font-size: 12px;&quot;&gt;&lt;font style=&quot;font-size: 12px;&quot;&gt;6.对保费保额进行赋值&lt;/font&gt;&lt;/div&gt;&lt;div style=&quot;font-size: 12px;&quot;&gt;&lt;font style=&quot;font-size: 12px;&quot;&gt;7.返回数据组装，构建险种和标的的对应关系&lt;/font&gt;&lt;/div&gt;" style="shape=note;size=20;whiteSpace=wrap;html=1;fontFamily=Lucida Console;fontSize=12;align=left;" parent="1" vertex="1"><mxGeometry x="1869" y="215" width="253" height="295" as="geometry"/></mxCell><mxCell id="268" value="" style="html=1;points=[];perimeter=orthogonalPerimeter;fontFamily=Lucida Console;fontSize=16;" parent="1" vertex="1"><mxGeometry x="2144" y="551" width="10" height="50" as="geometry"/></mxCell><mxCell id="269" value="create holderCustomer&amp;amp;insurantCustomer" style="html=1;verticalAlign=bottom;endArrow=block;entryX=0;entryY=0;rounded=0;strokeColor=#000000;fontFamily=Lucida Console;fontSize=16;fillColor=#FF3333;" parent="1" target="268" edge="1"><mxGeometry relative="1" as="geometry"><mxPoint x="948.5" y="551" as="sourcePoint"/></mxGeometry></mxCell><mxCell id="270" value="return" style="html=1;verticalAlign=bottom;endArrow=open;dashed=1;endSize=8;exitX=0;exitY=0.95;rounded=0;strokeColor=#000000;fontFamily=Lucida Console;fontSize=16;fillColor=#FF3333;" parent="1" source="268" edge="1"><mxGeometry relative="1" as="geometry"><mxPoint x="948.5" y="598.5" as="targetPoint"/></mxGeometry></mxCell><mxCell id="273" value="&lt;div style=&quot;font-size: 12px;&quot;&gt;保存投保人&lt;/div&gt;&lt;div style=&quot;font-size: 12px;&quot;&gt;保存投保单&lt;/div&gt;&lt;div style=&quot;font-size: 12px;&quot;&gt;保存保单标的信息&lt;/div&gt;&lt;div style=&quot;font-size: 12px;&quot;&gt;保存被保险的受益人和客户告知&lt;/div&gt;&lt;div style=&quot;font-size: 12px;&quot;&gt;保存险种，责任，被保险，客户告知，受益人&lt;/div&gt;&lt;div style=&quot;font-size: 12px;&quot;&gt;保存投保单层级费用&lt;/div&gt;&lt;div style=&quot;font-size: 12px;&quot;&gt;保存标的与险种的关系&lt;/div&gt;&lt;div style=&quot;font-size: 12px;&quot;&gt;保存路由&lt;/div&gt;" style="shape=note;size=20;whiteSpace=wrap;html=1;fontFamily=Lucida Console;fontSize=12;align=left;" parent="1" vertex="1"><mxGeometry x="679" y="585" width="250" height="135" as="geometry"/></mxCell><mxCell id="194" value="uw check" style="html=1;verticalAlign=bottom;endArrow=block;entryX=0;entryY=0;rounded=0;fontFamily=Lucida Console;fontSize=16;" parent="1" target="193" edge="1"><mxGeometry relative="1" as="geometry"><mxPoint x="958.0714285714284" y="719.9999999999998" as="sourcePoint"/></mxGeometry></mxCell><mxCell id="195" value="return" style="html=1;verticalAlign=bottom;endArrow=open;dashed=1;endSize=8;exitX=0;exitY=0.95;rounded=0;fontFamily=Lucida Console;fontSize=16;" parent="1" source="193" target="134" edge="1"><mxGeometry relative="1" as="geometry"><mxPoint x="958.0714285714284" y="796" as="targetPoint"/></mxGeometry></mxCell><mxCell id="274" value="foundation" style="shape=umlLifeline;perimeter=lifelinePerimeter;whiteSpace=wrap;html=1;container=1;collapsible=0;recursiveResize=0;outlineConnect=0;fontFamily=Lucida Console;fontSize=15;fontStyle=1" parent="1" vertex="1"><mxGeometry x="3000" y="98" width="100" height="1250" as="geometry"/></mxCell><mxCell id="275" value="" style="html=1;points=[];perimeter=orthogonalPerimeter;fontFamily=Lucida Console;fontSize=14;" parent="274" vertex="1"><mxGeometry x="36" y="1993" width="10" height="80" as="geometry"/></mxCell><mxCell id="276" value="" style="html=1;points=[];perimeter=orthogonalPerimeter;fontFamily=Lucida Console;fontSize=16;" parent="274" vertex="1"><mxGeometry x="45.5" y="711" width="10" height="60" as="geometry"/></mxCell><mxCell id="277" value="generate policyNo" style="html=1;verticalAlign=bottom;endArrow=block;entryX=0;entryY=0;rounded=0;fontFamily=Lucida Console;fontSize=16;" parent="1" target="276" edge="1"><mxGeometry relative="1" as="geometry"><mxPoint x="948.2777777777774" y="809" as="sourcePoint"/></mxGeometry></mxCell><mxCell id="278" value="return" style="html=1;verticalAlign=bottom;endArrow=open;dashed=1;endSize=8;exitX=0;exitY=0.95;rounded=0;fontFamily=Lucida Console;fontSize=16;" parent="1" source="276" edge="1"><mxGeometry relative="1" as="geometry"><mxPoint x="948.2777777777774" y="866.0000000000005" as="targetPoint"/></mxGeometry></mxCell><mxCell id="201" value="return" style="html=1;verticalAlign=bottom;endArrow=open;dashed=1;endSize=8;exitX=0;exitY=0.95;rounded=0;fontFamily=Lucida Console;fontSize=16;" parent="1" source="199" edge="1"><mxGeometry relative="1" as="geometry"><mxPoint x="648.9615384615386" y="969.1000000000004" as="targetPoint"/></mxGeometry></mxCell><mxCell id="279" value="&lt;div style=&quot;&quot;&gt;&lt;div style=&quot;&quot;&gt;&lt;div&gt;根据出单时的startFlag&lt;/div&gt;&lt;div&gt;a.为1时，立即出单，收首期和第二期的保费&lt;/div&gt;&lt;div&gt;创建1条余额记录[TEMPORARILY(100, &quot;订单暂收余额&quot;)]&lt;/div&gt;&lt;div&gt;创建2条实收，2条C100[ORDER_TEMPORARILY(&quot;订单暂收&quot;)]&lt;/div&gt;&lt;div&gt;b.为2时，未来单，收首期保费&lt;/div&gt;&lt;div&gt;创建2条余额记录[TEMPORARILY(100, &quot;订单暂收余额&quot;)、POLICY_RENEW(300, &quot;保单续期余额&quot;)]&lt;/div&gt;&lt;div&gt;创建4条实收，2条C100[ORDER_TEMPORARILY(&quot;订单暂收&quot;)]，2条C600[RENEW_TEMPORARILY(&quot;续期保费实收&quot;)]&lt;/div&gt;&lt;/div&gt;&lt;/div&gt;" style="shape=note;size=20;whiteSpace=wrap;html=1;fontFamily=Lucida Console;fontSize=12;align=left;" parent="1" vertex="1"><mxGeometry x="2469" y="889" width="250" height="246" as="geometry"/></mxCell><mxCell id="182" value="" style="html=1;points=[];perimeter=orthogonalPerimeter;fontFamily=Lucida Console;fontSize=16;" parent="1" vertex="1"><mxGeometry x="945" y="1087" width="10" height="133" as="geometry"/></mxCell><mxCell id="183" value="confirmIssuance" style="html=1;verticalAlign=bottom;endArrow=block;entryX=0;entryY=0;rounded=0;fontFamily=Lucida Console;fontSize=16;" parent="1" source="143" target="182" edge="1"><mxGeometry relative="1" as="geometry"><mxPoint x="712" y="1087" as="sourcePoint"/></mxGeometry></mxCell><mxCell id="184" value="return success" style="html=1;verticalAlign=bottom;endArrow=open;dashed=1;endSize=8;exitX=0;exitY=0.95;rounded=0;fontFamily=Lucida Console;fontSize=16;" parent="1" edge="1"><mxGeometry relative="1" as="geometry"><mxPoint x="649.4473684210525" y="1219.35" as="targetPoint"/><mxPoint x="945" y="1219.35" as="sourcePoint"/></mxGeometry></mxCell><mxCell id="280" value="&lt;div style=&quot;&quot;&gt;确认投保单，把投保单的状态从[AUTOMATIC_UNDERWIRTE_PASS(2, &quot;自动核保通过&quot;)]改为[ISSUANCE_EFFECT(10, &quot;生效&quot;)]&lt;br&gt;&lt;/div&gt;" style="shape=note;size=20;whiteSpace=wrap;html=1;fontFamily=Lucida Console;fontSize=12;align=left;" parent="1" vertex="1"><mxGeometry x="679" y="1100" width="251" height="90" as="geometry"/></mxCell><mxCell id="284" value="&lt;span style=&quot;font-size: 14px;&quot;&gt;notify createPolicy&lt;/span&gt;" style="html=1;verticalAlign=bottom;endArrow=block;entryX=0;entryY=0;rounded=0;strokeColor=#000000;fontFamily=Lucida Console;fontSize=15;fillColor=#FF3333;" parent="1" source="134" target="283" edge="1"><mxGeometry relative="1" as="geometry"><mxPoint x="1010" y="1124" as="sourcePoint"/></mxGeometry></mxCell><mxCell id="293" value="&lt;font style=&quot;font-size: 16px;&quot;&gt;notify create bill&lt;/font&gt;" style="html=1;verticalAlign=bottom;endArrow=block;rounded=0;fontSize=16;fontFamily=Lucida Console;" edge="1" parent="1" source="135"><mxGeometry relative="1" as="geometry"><mxPoint x="1670" y="1230" as="sourcePoint"/><mxPoint x="2450" y="1220" as="targetPoint"/></mxGeometry></mxCell><mxCell id="296" value="&lt;div style=&quot;&quot;&gt;&lt;div style=&quot;&quot;&gt;&lt;div&gt;发送保单effective消息，各个服务消费&lt;/div&gt;&lt;div&gt;最重要的创建应收bill&lt;/div&gt;&lt;/div&gt;&lt;/div&gt;" style="shape=note;size=20;whiteSpace=wrap;html=1;fontFamily=Lucida Console;fontSize=12;align=left;" vertex="1" parent="1"><mxGeometry x="2460" y="1162" width="240" height="60" as="geometry"/></mxCell><mxCell id="200" value="create payerCustomer" style="html=1;verticalAlign=bottom;endArrow=block;entryX=0;entryY=0;rounded=0;fontFamily=Lucida Console;fontSize=16;" parent="1" target="199" edge="1"><mxGeometry relative="1" as="geometry"><mxPoint x="648.9615384615386" y="914" as="sourcePoint"/></mxGeometry></mxCell><mxCell id="299" value="send policy effective meesage" style="html=1;verticalAlign=bottom;endArrow=open;dashed=1;endSize=8;exitX=0;exitY=0.95;rounded=0;fontFamily=Lucida Console;fontSize=16;" edge="1" source="297" parent="1" target="129"><mxGeometry relative="1" as="geometry"><mxPoint x="788" y="1299.75" as="targetPoint"/></mxGeometry></mxCell></root></mxGraphModel></diagram></mxfile>